<?xml version="1.0" encoding="utf-8"?>
<svg display="none" height="0" version="1.1" width="0" xmlns="http://www.w3.org/2000/svg" xmlns:xlink="http://www.w3.org/1999/xlink">
	<defs>
    <symbol id="sun" viewBox="0 0 504.9 506.9">
      <path d="M267.3,74.6C261.9,49.7,256.4,24.9,251,0c-0.3,0-0.7,0-1,0c0,1.2,0.2,2.4-0.1,3.5c-4.8,21.5-9.6,42.9-14.4,64.4
        c-1.6,7.2-3.1,14.4-4.6,21.5c13.6,0,26.5,0,39.7,0C269.5,84.5,268.4,79.5,267.3,74.6z"/>
      <path d="M231.2,420.2c4.4,19.9,9,39.7,13.3,59.6c2,9,3.6,18.1,5.4,27.2c0.3,0,0.7,0,1,0c6.5-29.8,13-59.6,19.5-89.4
        c-13.2,0-26.2,0-39.3,0C231.2,418.6,231.1,419.4,231.2,420.2z"/>
      <path d="M501.5,248.9c-21.4-4.8-42.9-9.7-64.3-14.4c-7-1.6-14-3-20.8-4.4c0,13.2,0,25.9,0,38.7c1.1,0,1.8,0.1,2.4,0
        c16.9-3.8,33.8-7.6,50.8-11.3c11.8-2.6,23.6-5,35.3-7.4c0-0.3,0-0.7,0-1C503.8,248.9,502.6,249.1,501.5,248.9z"/>
      <path d="M87.4,266.8c0.6-13.1,1.1-25.8,1.7-38.7c-1,0-2.2-0.1-3.3,0.2c-17,3.8-33.9,7.7-50.9,11.4c-11.6,2.6-23.3,4.9-34.9,7.3
        c0,0.3,0,0.7,0,1c1,0,2-0.2,3,0c15.5,3.4,31,6.9,46.5,10.4C62.2,261.2,74.9,264,87.4,266.8z"/>
      <path d="M181.4,104.1c-22.2-20.8-44.7-41.8-67.1-62.8c-0.3,0.2-0.5,0.3-0.8,0.5c11.3,28.2,22.6,56.3,33.7,84.1
        C158.7,118.5,170,111.3,181.4,104.1z"/>
      <path d="M386.1,39.7c-0.3-0.2-0.5-0.3-0.8-0.5c-22.3,20.9-44.7,41.8-66.8,62.5c11.6,6.9,23,13.6,34.6,20.4
        C363.9,95,375,67.4,386.1,39.7z"/>
      <path d="M119.4,155.2c-29.4-6.9-59.1-13.9-88.8-20.9c-0.1,0.3-0.3,0.7-0.4,1c23.3,18.3,46.5,36.7,69.4,54.7
        C106.4,178.1,112.8,166.8,119.4,155.2z"/>
      <path d="M403.5,186c22.7-18,45.7-36.1,68.7-54.2c-0.2-0.3-0.3-0.7-0.5-1c-29.7,7-59.4,14-88.8,20.9
        C389.8,163.2,396.5,174.4,403.5,186z"/>
      <path d="M383.3,354.6c29.3,6.9,58.6,13.8,87.8,20.6c0.2-0.4,0.4-0.8,0.6-1.2c-22.7-17.9-45.5-35.9-68-53.6
        C396.8,332,390.1,343.2,383.3,354.6z"/>
      <path d="M117,465.2c0.2,0.2,0.5,0.3,0.7,0.5c22.1-20.6,44.1-41.3,66-61.8c-11.4-7-22.5-13.8-33.8-20.7
        C138.9,410.5,128,437.8,117,465.2z"/>
      <path d="M99,315.2c-23,18.2-46.2,36.5-69.4,54.8c0.2,0.2,0.3,0.4,0.5,0.6c29.4-6.9,58.9-13.9,88-20.7
        C111.5,338,105.3,326.7,99,315.2z"/>
      <path d="M315,406.6c22.2,20.8,44.2,41.3,66.2,61.9c0.2-0.2,0.5-0.4,0.7-0.6c-10.8-26.9-21.6-53.7-32.3-80.6
        C337.9,393.9,326.6,400.2,315,406.6z"/>
      <path d="M250.8,107.8c-78.2,0-141.6,63.4-141.6,141.6S172.6,391,250.8,391s141.6-63.4,141.6-141.6S329,107.8,250.8,107.8z
         M250.7,366c-64.4,0-116.6-52.2-116.6-116.6s52.2-116.6,116.6-116.6S367.3,185,367.3,249.4S315.1,366,250.7,366z"/>
    </symbol>
  </defs>
</svg>
