<svg xmlns="http://www.w3.org/2000/svg" width="37" height="38" viewBox="0 0 37 38"><defs><filter id="a" width="200%" height="200%" x="-50%" y="-50%"><feMorphology in="SourceGraphic" operator="dilate" result="SvgjsFeMorphology1039Out"/><feOffset dy="1" in="SvgjsFeMorphology1039Out" result="SvgjsFeOffset1040Out"/><feGaussianBlur in="SvgjsFeOffset1040Out" result="SvgjsFeGaussianBlur1041Out" stdDeviation=".5"/><feComposite in="SvgjsFeGaussianBlur1041Out" in2="SourceAlpha" operator="out" result="SvgjsFeComposite1042Out"/></filter></defs><path fill="#0a0a0a" fill-opacity=".35" d="M1202.5 27a17.5 17.5 0 1 1 0 35 17.5 17.5 0 0 1 0-35z" filter="url(#a)" transform="translate(-1184 -26)"/><path fill="#fff" d="M18.5 1a17.5 17.5 0 1 1 0 35 17.5 17.5 0 0 1 0-35z"/><path d="M23.12 11L26 13.88l-4.62 4.62L26 23.12 23.12 26l-4.62-4.62L13.88 26 11 23.12l4.62-4.62L11 13.88 13.88 11l4.62 4.62z"/></svg>