<?xml version="1.0" encoding="utf-8"?>
<!-- Generator: Adobe Illustrator 17.1.0, SVG Export Plug-In . SVG Version: 6.00 Build 0)  -->
<!DOCTYPE svg PUBLIC "-//W3C//DTD SVG 1.1//EN" "http://www.w3.org/Graphics/SVG/1.1/DTD/svg11.dtd">
<svg version="1.1" id="Layer_1" xmlns="http://www.w3.org/2000/svg" xmlns:xlink="http://www.w3.org/1999/xlink" x="0px" y="0px"
	 viewBox="0 0 612 537" enable-background="new 0 0 612 537" xml:space="preserve">
<g>
	<path d="M452,439.8c-96.4,0-192.1,0-288.1,0c-8.5-78.7-41.7-144.8-100.4-197.8c12.9-15.4,48-17.2,60,15.8c2.4-2.2,4.7-4.6,7.2-6.6
		c11.6-9.2,27.6-10.2,40.1-2.6c13.1,8,19.8,23.1,16.9,37.6c-4.2,20.4,9.6,39.9,30.9,43.7c18.8,3.4,38.2-11.7,40.9-31.5
		c1.8-13.3-2.8-23.9-12.1-33.2c-19.3-19.2-11.7-52,14-60.3c4.9-1.6,10.3-1.7,15.5-2.5c-6.6-24.2-3.2-38.1,12-48.3
		c12.5-8.4,29.2-7.9,41,1.2c14.1,10.8,17.3,25.9,10,47.5c3.8,0.3,7.6,0.1,11.2,0.8c13.9,2.8,23.5,11.1,27.6,24.5
		c4.2,13.7,1.6,26.4-8.9,36.7c-5.6,5.4-10.6,11.1-12.1,19c-3.6,20,7,40,26.9,45.1c19.7,5.1,39.7-7,44.3-27
		c1.3-5.5,1.3-11.7,0.3-17.2c-3.3-18.4,10.5-40.3,34.4-41.4c9.4-0.4,18,2.8,24.9,9.5c1.7,1.6,3,3.5,5,6c5.2-16.2,15.5-25,30.9-27.6
		c9.6-1.6,21.8,2.8,28.5,10.2C494.8,295.2,460.8,361,452,439.8z"/>
</g>
<circle cx="42.1" cy="175.3" r="27"/>
<circle cx="565.1" cy="175.3" r="27"/>
<circle cx="308.1" cy="88.6" r="27"/>
<rect x="164.6" y="467.6" width="287" height="35"/>
</svg>
