<?xml version="1.0" encoding="utf-8"?>
<!-- Generator: Adobe Illustrator 17.1.0, SVG Export Plug-In . SVG Version: 6.00 Build 0)  -->
<!DOCTYPE svg PUBLIC "-//W3C//DTD SVG 1.1//EN" "http://www.w3.org/Graphics/SVG/1.1/DTD/svg11.dtd">
<svg version="1.1" id="Layer_1" xmlns="http://www.w3.org/2000/svg" xmlns:xlink="http://www.w3.org/1999/xlink" x="0px" y="0px"
	 viewBox="0 0 504.9 537" enable-background="new 0 0 504.9 537" xml:space="preserve">
<g>
	<path d="M451.9,101.8c-25.6-14.8-53.9-17.3-83.1-17c1.5,0.7,2.9,1.5,4.4,2.2c14.5,7.2,28.5,15,39.3,27.6c11.9,14,15.5,30.4,15,48.2
		c-0.1,3.8-0.6,7.6-0.9,12.2c-21.9-31.7-53.7-49.1-86.1-65.8c23.4,29.1,35,61.3,28,100.3c-13.3-30.1-32.5-54.5-55.5-76.9
		c-2.8,5.5-5.6,10-5.6,16.4c-0.2,21.8-0.8,43.6-2.4,65.3c-1.5,19.2-4.1,38.3-7,57.3c-6.8,44.3-18.1,87.5-34.4,129.2
		c-1.4,3.6-1.3,6.2,0.9,9.1c2.6,3.3,2.9,6.6,0.5,10.4c-1.7,2.8-2.7,6-4,9.1c-0.4,0.9-0.5,1.8-0.9,3.3c8.3-4.6,16.3-8.4,26.2-7.9
		c-5,5.6-9.7,10.8-14.3,16c9.4-2.4,18.4-5.5,28.4-3.6c-1.4,3.1-2.9,6.2-4.1,8.8c12.1,9.9,24,19.7,36,29.4c-0.3,0.5-0.6,0.9-0.9,1.4
		c-5.1-2.1-10.3-4-15.2-6.4c-13.4-6.7-26.5-6.5-40.2-0.3c-20.5,9.2-14.3,9.2-35.1,0c-13.7-6.1-26.6-6-40.2,0
		c-20.6,9.1-14.5,9.1-35.5-0.2c-12.9-5.8-25.5-6.3-38.3-0.1c-4.8,2.3-9.7,4.2-14.6,6.2c-1.1,0.5-2.4,0.6-4.2,0
		c8.1-8.8,16.2-17.5,24.6-26.5c-0.6-2.3-1.3-5.3-2.2-9c8.9,0,17.1,0,26.4,0c-3-8.1-5.8-15.7-8.7-23.6c11.7,1.4,20.5,7.9,28.6,17.1
		c1.9-5.3,3.6-10,5.4-14.7c1.1-3,1.3-6.5,5.4-7.7c0.8-0.2,1.5-2.5,1.5-3.8c0.8-41.6-5-82.1-20.5-120.8c-2.3-5.8-8.9-10-13.8-14.7
		c-0.4-0.4-2.7,0.5-3.8,1.3c-19.4,13.1-34.9,29.7-44.6,51.3c-0.3,0.7-0.7,1.3-1.6,1.8c0.4-13.2,1.6-26.2,5.2-38.9
		c3.6-12.9,9.7-24.5,18.8-35.7c-15.8,2.7-29.5,7.9-42.3,15.2c-8.2,4.6-15.6,10.6-23.4,16c-0.9,0.6-2,1.1-3,1.6c0-0.3,0-0.7,0-1
		c1-3.5,1.9-6.9,3-10.4c7.9-24.9,22.6-42.9,49.2-49.1c2.3-0.5,4.6-1,7.7-1.7c-9.9-10.5-18.9-20.7-31.6-26.8
		c26-10.4,45.4,4.8,64.8,16.7c5.7-6,10.8-12.2,16.7-17.5c6-5.3,13.5-8.2,21.6-9.5c9.6-1.5,17.4-1,22.9,1.9
		c-10.7,7.1-17.6,15-19.2,22.3c11.7-3.9,23.6-6.2,35.8-4c12.2,2.2,22.9,7.4,32.2,16.8c-27.7,2.8-49.3,8.8-58.2,16
		c27.2,13.8,37.9,23,39.9,34.3c-19-4.9-38.1-9.7-58.3-14.9c0.4,7.6-1,14.6,1.3,20.2c14.8,35.8,23.2,72.9,24.3,111.6
		c0.3,9.1,0,18.2,0,27.2c3.2-2,5-4.7,7.4-6.9c1.8-1.7,4.2-3.8,6.4-4c3.8-0.3,4.9-2.5,6.2-5.3c33.9-78,50.6-159.6,52.1-244.5
		c0.2-9.3-1.5-17.6-6.2-25.6c-4.2-7.1-3.9-7.2-12.2-5.4c-19.4,4-37.2,12-54.3,21.5c-12.6,7-24.8,14.8-36.9,22.1
		c7.5-35,28.2-59.3,61.9-73c-17.3-2.9-34.2-2.7-51.1-1.2c-16.8,1.5-33.4,3.5-49.7,11c9.4-19.4,21.7-34.3,41.9-41.2
		c13.8-4.7,28.1-6.6,42.6-6.8c8.5-0.1,17,0,26.7,0c-17.9-14.9-34.9-29-58.7-32.2c1.8-1.2,3.1-2.2,4.5-3c12.1-7.7,40.3-27.6,65.5-2.5
		c10.3,8.9,20,18.4,30.3,27.8c11.1-14.7,24.9-27.2,43-34c18.2-6.9,36.6-6.8,55.9-1c-16.6,12-32.4,23.4-48.3,34.9
		c4.7,0.1,8.9-0.6,13.1-1.1c28.6-3.9,53.8,3.5,74.5,23.7c9.2,9,16.8,19.6,25.2,29.4C451.9,100.5,451.9,101.1,451.9,101.8z"/>
</g>
<g>
	<path d="M334.9,527.3c-79.4-29.5-152.9-29.6-224.5-0.1l-7.6-18.5c37.8-15.6,77.1-27.9,116.8-27.9c0.7,0,1.4,0,2.1,0
		c38.9,0.3,79.3,12.5,120.1,27.7L334.9,527.3z"/>
</g>
</svg>
